HIERARCHY
ROOT Pelvis
{
	OFFSET 0.000000 0.000000 0.000000
	CHANNELS 6 Xposition Yposition Zposition Xrotation Yrotation Zrotation
	JOINT LeftUpLeg_virtual
	{
		OFFSET 0.000000 0.000000 0.000000
		CHANNELS 3 Xrotation Yrotation Zrotation
		JOINT LeftUpLeg
		{
			OFFSET 18.735201 -5.666702 -4.541200
			CHANNELS 3 Xrotation Yrotation Zrotation
			JOINT LeftLeg
			{
				OFFSET -0.021200 -31.938179 0.493100
				CHANNELS 3 Xrotation Yrotation Zrotation
				JOINT LeftFoot
				{
					OFFSET 0.021200 -31.938179 -4.336299
					CHANNELS 3 Xrotation Yrotation Zrotation
					JOINT LeftToeBase
					{
						OFFSET 0.943001 -26.722000 15.023500
						CHANNELS 3 Xrotation Yrotation Zrotation
						End Site
						{
							OFFSET 0 0 0
						}
					}
				}
			}
		}
	}
	JOINT RightUpLeg_virtual
	{
		OFFSET 0.000000 0.000000 0.000000
		CHANNELS 3 Xrotation Yrotation Zrotation
		JOINT RightUpLeg
		{
			OFFSET -18.735201 -5.666702 -4.541200
			CHANNELS 3 Xrotation Yrotation Zrotation
			JOINT RightLeg
			{
				OFFSET 0.018946 -31.938133 0.493100
				CHANNELS 3 Xrotation Yrotation Zrotation
				JOINT RightFoot
				{
					OFFSET -0.018946 -31.938126 -4.336299
					CHANNELS 3 Xrotation Yrotation Zrotation
					JOINT RightToeBase
					{
						OFFSET -0.943001 -26.722004 15.023500
						CHANNELS 3 Xrotation Yrotation Zrotation
						End Site
						{
							OFFSET 0 0 0
						}
					}
				}
			}
		}
	}
	JOINT Hips_virtual
	{
		OFFSET 0.000000 0.000000 0.000000
		CHANNELS 3 Xrotation Yrotation Zrotation
		JOINT Hips
		{
			OFFSET -0.000000 -0.000000 -0.000000
			CHANNELS 3 Xrotation Yrotation Zrotation
			JOINT Spine
			{
				OFFSET 0.000000 10.199997 -0.299500
				CHANNELS 3 Xrotation Yrotation Zrotation
				JOINT Spine1
				{
					OFFSET 0.000000 11.900002 -1.516600
					CHANNELS 3 Xrotation Yrotation Zrotation
					JOINT Spine2
					{
						OFFSET 0.000000 13.600006 -2.842500
						CHANNELS 3 Xrotation Yrotation Zrotation
						JOINT Neck_virtual
						{
							OFFSET 0.000000 0.000000 0.000000
							CHANNELS 3 Xrotation Yrotation Zrotation
							JOINT Neck
							{
								OFFSET 0.000000 9.624100 -2.890100
								CHANNELS 3 Xrotation Yrotation Zrotation
								JOINT Head
								{
									OFFSET 0.000000 14.068802 -1.351900
									CHANNELS 3 Xrotation Yrotation Zrotation
									End Site
									{
										OFFSET 0 0 0
									}
								}
							}
						}
						JOINT LeftShoulder_virtual
						{
							OFFSET 0.000000 0.000000 0.000000
							CHANNELS 3 Xrotation Yrotation Zrotation
							JOINT LeftShoulder
							{
								OFFSET 15.263000 10.923401 -0.547700
								CHANNELS 3 Xrotation Yrotation Zrotation
								JOINT LeftArm
								{
									OFFSET 25.438599 -2.830597 -13.032500
									CHANNELS 3 Xrotation Yrotation Zrotation
									JOINT LeftForeArm
									{
										OFFSET 29.960503 0.000000 0.000000
										CHANNELS 3 Xrotation Yrotation Zrotation
										JOINT LeftHand
										{
											OFFSET 27.849251 0.000000 0.000000
											CHANNELS 3 Xrotation Yrotation Zrotation
											End Site
											{
												OFFSET 0 0 0
											}
										}
									}
								}
							}
						}
						JOINT RightShoulder_virtual
						{
							OFFSET 0.000000 0.000000 0.000000
							CHANNELS 3 Xrotation Yrotation Zrotation
							JOINT RightShoulder
							{
								OFFSET -15.263000 10.923401 -0.547700
								CHANNELS 3 Xrotation Yrotation Zrotation
								JOINT RightArm
								{
									OFFSET -25.438599 -2.830597 -13.032500
									CHANNELS 3 Xrotation Yrotation Zrotation
									JOINT RightForeArm
									{
										OFFSET -29.960503 0.000000 0.000000
										CHANNELS 3 Xrotation Yrotation Zrotation
										JOINT RightHand
										{
											OFFSET -27.849251 0.000000 0.000000
											CHANNELS 3 Xrotation Yrotation Zrotation
											End Site
											{
												OFFSET 0 0 0
											}
										}
									}
								}
							}
						}
					}
				}
			}
		}
	}
}
MOTION
Frames: 12
Frame Time: 0.03333333
9.980167 17.125137 179.485382 0.000000 0.000000 0.000000 -47.760654 -15.908515 15.221225 -91.151224 -12.408579 28.280622 92.421236 -8.489650 -0.775041 27.378783 -10.583386 -15.153266 0.000000 0.000000 0.000000 -57.634960 8.305083 -8.990527 -92.493711 11.003741 -18.679533 81.204604 9.405256 -5.482182 13.113991 11.010287 14.353012 0.000000 0.000000 0.000000 -25.830925 -16.500822 -0.075283 -75.255721 18.403212 26.093616 3.874082 -3.342083 -0.824962 0.889993 -1.323999 -0.461088 0.000000 0.000000 0.000000 8.484264 -0.054061 -1.130927 1.847456 0.062473 -0.597542 0.000000 0.000000 0.000000 1.106470 -1.173743 -0.325193 -0.140223 -10.313875 -8.396593 24.674822 4.338949 -48.754420 11.824224 -18.719491 0.678157 0.000000 0.000000 0.000000 3.856151 0.126470 -0.073141 2.568520 4.523256 8.415104 39.956224 11.439490 40.230101 30.702520 49.600656 -15.622760 0.000000 0.000000 0.000000 
10.045122 17.068516 179.457214 0.000000 0.000000 0.000000 -47.971888 -15.894813 15.203562 -91.317218 -12.421582 28.248044 92.511046 -8.406029 -0.739842 27.462324 -10.518229 -15.022108 0.000000 0.000000 0.000000 -57.244922 8.095468 -9.204588 -92.177542 10.979930 -18.811347 80.532548 9.601806 -5.292324 12.398616 10.956634 14.778675 0.000000 0.000000 0.000000 -25.892655 -16.377194 -0.044376 -75.760861 18.198530 26.188310 3.875974 -3.360327 -0.900324 0.907989 -1.345291 -0.504516 0.000000 0.000000 0.000000 8.557933 -0.099320 -1.151825 1.891010 0.056059 -0.616402 0.000000 0.000000 0.000000 1.126145 -1.167320 -0.394885 -0.163064 -10.163024 -8.677106 24.477212 4.402567 -48.384886 11.768443 -18.588220 0.721808 0.000000 0.000000 0.000000 3.795215 0.103203 -0.017836 2.505223 4.510926 8.545501 39.495733 11.083687 40.442834 30.054735 49.399835 -15.122630 0.000000 0.000000 0.000000 
10.102667 16.988846 179.434845 0.000000 0.000000 0.000000 -48.236189 -15.866173 15.174244 -91.523210 -12.431436 28.200736 92.586609 -8.305636 -0.690855 27.534246 -10.440593 -14.854306 0.000000 0.000000 0.000000 -56.810679 7.897994 -9.412347 -91.826286 10.955318 -18.945362 79.748414 9.809643 -5.055986 11.609314 10.874261 15.263253 0.000000 0.000000 0.000000 -25.942788 -16.242765 -0.000783 -76.240272 18.007910 26.327372 3.890262 -3.374055 -0.982997 0.929017 -1.364744 -0.549211 0.000000 0.000000 0.000000 8.625977 -0.144719 -1.175447 1.932223 0.053110 -0.639026 0.000000 0.000000 0.000000 1.169851 -1.149467 -0.468740 -0.162580 -9.938283 -8.991324 24.299646 4.440537 -47.935094 11.717125 -18.449634 0.781300 0.000000 0.000000 0.000000 3.740670 0.082133 0.039005 2.446022 4.514738 8.673048 38.983687 10.657347 40.707098 29.330612 49.151414 -14.567357 0.000000 0.000000 0.000000 
10.159025 16.886196 179.404633 0.000000 0.000000 0.000000 -48.567747 -15.800405 15.148002 -91.777675 -12.439405 28.142046 92.635868 -8.188188 -0.627457 27.580008 -10.348559 -14.648355 0.000000 0.000000 0.000000 -56.349129 7.724672 -9.533118 -91.457722 10.901902 -19.037783 78.858571 10.068525 -4.758294 10.735903 10.789807 15.868918 0.000000 0.000000 0.000000 -26.006821 -16.114067 0.037861 -76.787814 17.846767 26.474816 3.903968 -3.384362 -1.067197 0.944768 -1.382443 -0.591746 0.000000 0.000000 0.000000 8.659518 -0.192337 -1.197794 1.957192 0.052646 -0.663096 0.000000 0.000000 0.000000 1.228350 -1.129447 -0.538980 -0.148483 -9.671076 -9.313832 24.058168 4.437509 -47.415805 11.659336 -18.411577 0.874199 0.000000 0.000000 0.000000 3.690793 0.065282 0.095502 2.386788 4.547788 8.787515 38.399713 10.149302 41.004252 28.538161 48.875273 -13.983975 0.000000 0.000000 0.000000 
10.235149 16.782097 179.331970 0.000000 0.000000 0.000000 -48.954971 -15.708723 15.120821 -92.070868 -12.446657 28.070783 92.673673 -8.050896 -0.554328 27.620899 -10.239758 -14.408175 0.000000 0.000000 0.000000 -55.874813 7.571961 -9.575808 -91.081795 10.822673 -19.092353 77.883916 10.362205 -4.413684 9.799501 10.698218 16.557815 0.000000 0.000000 0.000000 -26.083558 -15.984009 0.061982 -77.385196 17.758430 26.587051 3.926069 -3.393721 -1.154694 0.960863 -1.399685 -0.632974 0.000000 0.000000 0.000000 8.676044 -0.242315 -1.222544 1.974857 0.054737 -0.690334 0.000000 0.000000 0.000000 1.304061 -1.105863 -0.609050 -0.119298 -9.358071 -9.654136 23.791168 4.362119 -46.861928 11.612735 -18.477996 0.986582 0.000000 0.000000 0.000000 3.649906 0.051428 0.149730 2.331802 4.603364 8.886766 37.763020 9.575484 41.311907 27.714189 48.599350 -13.408632 0.000000 0.000000 0.000000 
10.314683 16.674343 179.234314 0.000000 0.000000 0.000000 -49.412341 -15.575157 15.044976 -92.417029 -12.427111 27.958317 92.728929 -7.903164 -0.477173 27.675027 -10.122734 -14.152648 0.000000 0.000000 0.000000 -55.272633 7.228218 -9.590576 -90.601162 10.646365 -19.130236 76.918715 10.659930 -4.050811 8.904816 10.608029 17.264971 0.000000 0.000000 0.000000 -26.156911 -15.873778 0.072918 -77.972326 17.714249 26.647512 3.979557 -3.409202 -1.228391 0.988840 -1.420089 -0.663233 0.000000 0.000000 0.000000 8.691793 -0.297061 -1.250865 1.992277 0.058356 -0.721784 0.000000 0.000000 0.000000 1.400116 -1.081256 -0.672216 -0.072263 -9.002084 -9.988498 23.516642 4.208284 -46.210362 11.582162 -18.645896 1.140192 0.000000 0.000000 0.000000 3.626626 0.037547 0.202966 2.287233 4.674177 8.967725 37.081244 8.942142 41.635477 26.854419 48.317366 -12.828915 0.000000 0.000000 0.000000 
10.406202 16.557793 179.127808 0.000000 0.000000 0.000000 -49.911624 -15.437862 14.937280 -92.793973 -12.397789 27.821211 92.790982 -7.743928 -0.389429 27.753637 -10.002908 -13.870941 0.000000 0.000000 0.000000 -54.645301 6.883047 -9.523101 -90.101349 10.432460 -19.128621 75.945222 10.925822 -3.675095 8.038731 10.486163 17.945596 0.000000 0.000000 0.000000 -26.211355 -15.780940 0.069461 -78.513298 17.736511 26.656734 4.075700 -3.422931 -1.290460 1.034939 -1.439186 -0.684087 0.000000 0.000000 0.000000 8.709590 -0.347607 -1.278850 2.011327 0.068726 -0.754287 0.000000 0.000000 0.000000 1.527182 -1.042201 -0.731454 0.003392 -8.569709 -10.323049 23.245862 4.033379 -45.477250 11.557178 -18.833938 1.321132 0.000000 0.000000 0.000000 3.623254 0.029825 0.254406 2.255358 4.759921 9.033485 36.376061 8.303573 41.979538 26.004921 48.100487 -12.271743 0.000000 0.000000 0.000000 
10.484058 16.460442 179.048584 0.000000 0.000000 0.000000 -50.447149 -15.245440 14.818596 -93.195787 -12.348740 27.666482 92.863074 -7.580751 -0.287843 27.858146 -9.890083 -13.566586 0.000000 0.000000 0.000000 -54.058652 6.612775 -9.362467 -89.637237 10.211073 -19.079701 74.951723 11.125734 -3.288132 7.185742 10.297989 18.563889 0.000000 0.000000 0.000000 -26.255054 -15.702181 0.047869 -79.017195 17.846103 26.604188 4.211922 -3.440559 -1.339087 1.098594 -1.459882 -0.694272 0.000000 0.000000 0.000000 8.740929 -0.394517 -1.314255 2.037013 0.085248 -0.791958 0.000000 0.000000 0.000000 1.682097 -0.988923 -0.784649 0.106175 -8.055705 -10.648208 22.960863 3.827398 -44.669014 11.533203 -19.066468 1.528302 0.000000 0.000000 0.000000 3.637568 0.025674 0.302673 2.232356 4.855731 9.078729 35.628350 7.646321 42.322461 25.146076 47.938601 -11.735447 0.000000 0.000000 0.000000 
10.588037 16.374588 178.982300 0.000000 0.000000 0.000000 -51.008201 -15.007606 14.675191 -93.615071 -12.275948 27.488055 92.941143 -7.416110 -0.174989 27.996911 -9.787314 -13.245102 0.000000 0.000000 0.000000 -53.366078 6.294316 -9.173852 -89.087667 9.950182 -19.018534 73.785441 11.148852 -2.900559 6.315885 9.955812 18.977640 0.000000 0.000000 0.000000 -26.275463 -15.643290 0.025173 -79.368902 17.952913 26.490453 4.372595 -3.470694 -1.369798 1.169659 -1.486376 -0.691032 0.000000 0.000000 0.000000 8.793417 -0.435724 -1.355530 2.072898 0.109289 -0.833798 0.000000 0.000000 0.000000 1.860601 -0.923904 -0.829425 0.233285 -7.469150 -10.955411 22.620215 3.578512 -43.781212 11.494460 -19.368185 1.760305 0.000000 0.000000 0.000000 3.667155 0.024965 0.351448 2.215527 4.964806 9.118682 34.803424 6.995350 42.688385 24.260962 47.861475 -11.199528 0.000000 0.000000 0.000000 
10.704522 16.303970 178.956573 0.000000 0.000000 0.000000 -51.590061 -14.728547 14.494954 -94.049984 -12.173983 27.281299 93.023509 -7.252408 -0.055749 28.164616 -9.693426 -12.915445 0.000000 0.000000 0.000000 -52.582392 5.860799 -9.147544 -88.454249 9.707312 -19.031938 72.238908 10.857449 -2.531979 5.368998 9.351969 19.008671 0.000000 0.000000 0.000000 -26.280592 -15.593540 -0.003070 -79.635102 18.093837 26.330801 4.541910 -3.509069 -1.382512 1.240029 -1.515985 -0.674697 0.000000 0.000000 0.000000 8.852478 -0.476849 -1.392788 2.112116 0.136333 -0.874021 0.000000 0.000000 0.000000 2.063136 -0.847029 -0.870303 0.387471 -6.809024 -11.263732 22.234356 3.282635 -42.820450 11.447902 -19.741291 2.017516 0.000000 0.000000 0.000000 3.705066 0.023626 0.405485 2.200651 5.070703 9.170813 33.911869 6.340748 43.076914 23.345327 47.847773 -10.653247 0.000000 0.000000 0.000000 
10.822235 16.217247 178.958069 0.000000 0.000000 0.000000 -52.206168 -14.405219 14.274666 -94.511254 -12.041188 27.043378 93.123810 -7.099560 0.067624 28.358358 -9.616335 -12.591704 0.000000 0.000000 0.000000 -51.882896 5.477497 -8.896915 -87.902472 9.394519 -18.909795 70.688551 10.461087 -2.182069 4.480125 8.685071 18.922042 0.000000 0.000000 0.000000 -26.280519 -15.521400 -0.031010 -79.868756 18.292995 26.173008 4.715685 -3.543885 -1.387936 1.308029 -1.542111 -0.650741 0.000000 0.000000 0.000000 8.909810 -0.525298 -1.424712 2.149062 0.161963 -0.912087 0.000000 0.000000 0.000000 2.282586 -0.741801 -0.903560 0.563382 -6.011330 -11.554614 21.754033 2.970510 -41.792469 11.371554 -20.183132 2.298606 0.000000 0.000000 0.000000 3.762215 0.020185 0.461290 2.190889 5.168063 9.221643 32.922567 5.644911 43.463393 22.368730 47.868520 -10.089747 0.000000 0.000000 0.000000 
10.952230 16.130539 179.004486 0.000000 0.000000 0.000000 -52.854056 -14.039784 14.023511 -94.996013 -11.882284 26.778686 93.239582 -6.965575 0.194478 28.566523 -9.562577 -12.283256 0.000000 0.000000 0.000000 -51.250785 5.143745 -8.577893 -87.407488 9.076060 -18.743576 69.224753 9.972092 -1.877722 3.688780 7.982915 18.707398 0.000000 0.000000 0.000000 -26.282571 -15.418520 -0.055536 -80.095129 18.549846 26.045038 4.888839 -3.563544 -1.397183 1.369303 -1.558698 -0.625818 0.000000 0.000000 0.000000 8.942481 -0.580591 -1.445835 2.173665 0.185189 -0.944328 0.000000 0.000000 0.000000 2.523670 -0.627762 -0.934117 0.762906 -5.171779 -11.848905 21.199196 2.595916 -40.721916 11.280656 -20.730089 2.596454 0.000000 0.000000 0.000000 3.832864 0.017717 0.516461 2.188494 5.256422 9.257820 31.861716 4.892527 43.829768 21.340685 47.885937 -9.510742 0.000000 0.000000 0.000000 
